<?xml version="1.0" encoding="UTF-8"?>
<svg width="14px" height="14px" viewBox="0 0 14 14" version="1.1" xmlns="http://www.w3.org/2000/svg" xmlns:xlink="http://www.w3.org/1999/xlink">
    <g id="页面-1" stroke="none" stroke-width="1" fill="none" fill-rule="evenodd">
        <g id="带结构树" transform="translate(-398.000000, -77.000000)" fill="#3AB0C0" fill-rule="nonzero">
            <path d="M405,77 C401.134009,77 398,80.1339998 398,84 C398,87.8660002 401.134009,91 405,91 C408.865991,91 412,87.8660002 412,84 C412,80.1339998 408.865991,77 405,77 M408.526547,84.7385453 L405.736836,84.7385453 L405.736836,87.5346659 C405.736836,87.9425424 405.406926,88.2732111 404.999984,88.2732111 C404.593043,88.2732111 404.263132,87.9425424 404.263132,87.5346659 L404.263132,84.7385453 L401.473422,84.7385453 C401.06648,84.7385453 400.73657,84.4078765 400.73657,84 C400.73657,83.5921235 401.06648,83.2614547 401.473422,83.2614547 L404.263132,83.2614547 L404.263132,80.4653341 C404.263132,80.0574576 404.593043,79.7267889 404.999984,79.7267889 C405.406926,79.7267889 405.736836,80.0574576 405.736836,80.4653341 L405.736836,83.2614547 L408.526547,83.2614547 C408.933488,83.2614547 409.263399,83.5921235 409.263399,84 C409.263399,84.4078765 408.933488,84.7385453 408.526547,84.7385453 Z" id="add_tree_icon"></path>
        </g>
    </g>
</svg>
