<?xml version="1.0" encoding="UTF-8"?>
<svg width="20px" height="20px" viewBox="0 0 20 20" version="1.1" xmlns="http://www.w3.org/2000/svg" xmlns:xlink="http://www.w3.org/1999/xlink">
    <g id="页面-1" stroke="none" stroke-width="1" fill="none" fill-rule="evenodd">
        <g id="工艺流程编辑器" transform="translate(-328.000000, -16.000000)">
            <g id="功能按钮区" transform="translate(168.000000, 14.000000)">
                <g id="copy_function_icon" transform="translate(160.000000, 2.000000)">
                    <rect id="矩形备份-6" x="0" y="0" width="20" height="20"></rect>
                    <path d="M13.7692308,5.69230768 C14.0666149,5.69230768 14.3076923,5.93338513 14.3076923,6.23076923 L14.3076923,16.4615385 C14.3076923,16.7589226 14.0666149,17 13.7692308,17 L3.53846153,17 C3.24107744,17 3,16.7589226 3,16.4615385 L3,6.23076923 C3,5.93338513 3.24107744,5.69230768 3.53846153,5.69230768 L13.7692308,5.69230768 Z M8.72774178,7.5 C8.3585826,7.50095381 8.05942074,7.80559116 8.05801471,8.18198492 L8.05801471,10.669249 L5.76887394,10.669249 C5.39971624,10.6706826 5.10093546,10.9757085 5.1,11.3521038 C5.1,11.7278914 5.4011639,12.0349586 5.76887394,12.0349586 L8.05886786,12.0349586 L8.05886786,14.4611942 C8.05886786,14.8369818 8.36088492,15.144049 8.72859495,15.144049 C9.09808586,15.1430929 9.39738424,14.8379278 9.39832204,14.4611942 L9.39832204,12.0340887 L11.6680875,12.0340887 C12.0375785,12.0331326 12.3368768,11.7279675 12.3378146,11.3512339 C12.3368768,10.9745004 12.0375785,10.6693353 11.6680875,10.6683791 L9.39746887,10.6675093 L9.39746887,8.18198492 C9.39606284,7.80559115 9.09690097,7.5009538 8.72774178,7.5 Z M16.4615385,3 C16.7589226,3 17,3.24107744 17,3.53846153 L17,14.3076923 C17,14.6050764 16.7589226,14.8461538 16.4615385,14.8461538 L15.3846154,14.8461538 L15.3846154,5.15384615 C15.3846154,4.85646205 15.1435379,4.61538461 14.8461538,4.61538461 L6.23076923,4.61538461 L6.23076923,3.53846153 C6.23076923,3.24107744 6.47184668,3 6.76923077,3 L16.4615385,3 Z" id="形状结合" fill="#72747F" fill-rule="nonzero"></path>
                </g>
            </g>
        </g>
    </g>
</svg>
