<?xml version="1.0" encoding="UTF-8"?>
<svg width="120px" height="120px" viewBox="0 0 120 120" version="1.1" xmlns="http://www.w3.org/2000/svg" xmlns:xlink="http://www.w3.org/1999/xlink">
    <title>empty_defalt_img</title>
    <defs>
        <linearGradient x1="144.588078%" y1="66.9103226%" x2="29.5159577%" y2="67.3261502%" id="linearGradient-1">
            <stop stop-color="#E0E5EF" stop-opacity="0" offset="0%"></stop>
            <stop stop-color="#E0E5EF" offset="100%"></stop>
        </linearGradient>
        <linearGradient x1="144.588078%" y1="66.9094031%" x2="29.5159577%" y2="67.3252081%" id="linearGradient-2">
            <stop stop-color="#E0E5EF" stop-opacity="0" offset="0%"></stop>
            <stop stop-color="#E0E5EF" offset="100%"></stop>
        </linearGradient>
        <linearGradient x1="93.4061835%" y1="98.8%" x2="40.5999348%" y2="100%" id="linearGradient-3">
            <stop stop-color="#E0E5EF" stop-opacity="0" offset="0%"></stop>
            <stop stop-color="#E0E5EF" offset="100%"></stop>
        </linearGradient>
        <linearGradient x1="92.5182204%" y1="98.8%" x2="40.7922325%" y2="100%" id="linearGradient-4">
            <stop stop-color="#E0E5EF" stop-opacity="0" offset="0%"></stop>
            <stop stop-color="#E0E5EF" offset="100%"></stop>
        </linearGradient>
        <linearGradient x1="50%" y1="100%" x2="50%" y2="-26.8681996%" id="linearGradient-5">
            <stop stop-color="#A2ABB9" offset="0%"></stop>
            <stop stop-color="#E7EAF0" offset="100%"></stop>
        </linearGradient>
        <linearGradient x1="50%" y1="100%" x2="95.9201389%" y2="-28.9579615%" id="linearGradient-6">
            <stop stop-color="#A2ABB9" offset="0%"></stop>
            <stop stop-color="#E7EAF0" offset="100%"></stop>
        </linearGradient>
    </defs>
    <g id="页面-1" stroke="none" stroke-width="1" fill="none" fill-rule="evenodd">
        <g id="页面设计器备份" transform="translate(-1228.000000, -289.000000)" fill-rule="nonzero">
            <g id="属性编辑" transform="translate(1136.000000, 52.000000)">
                <g id="empty_defalt_img" transform="translate(92.000000, 237.000000)">
                    <rect id="矩形" fill="#FFFFFF" x="0" y="0" width="120" height="120"></rect>
                    <path d="M59.4734616,15.4 C69.6804094,15.4 79.0919202,18.7524318 86.6336404,24.3997366 L83.6,24.4 C82.1640596,24.4 81,25.5640596 81,27 L81,27 L81,27.2 C81,28.6359404 82.1640596,29.8 83.6,29.8 L83.6,29.8 L92.6356396,29.7998484 C94.3497966,31.6471832 95.9067798,33.6382446 97.2857608,35.7525298 L101.575385,35.7525582 C103.121782,35.7525582 104.375385,37.0061608 104.375385,38.5525582 L104.375385,38.7088372 C104.375385,39.9864 103.519762,41.0641214 102.350293,41.400225 L98.4,41.4 C96.6326888,41.4 95.2,42.8326888 95.2,44.6 L95.2,44.6 L95.2,45.6 C95.2,47.3673112 96.6326888,48.8 98.4,48.8 L98.4,48.8 L111.98028,48.7999918 C113.370457,49.1483206 114.4,50.406022 114.4,51.904186 L114.4,52.0827906 C114.4,53.8501018 112.967311,55.2827906 111.2,55.2827906 L104.163903,55.282567 C104.3038,56.7031046 104.375385,58.1433232 104.375385,59.6 C104.375385,84.010986 84.2721088,103.8 59.4734616,103.8 C39.6378692,103.8 22.8063074,91.1392768 16.8636564,73.5794512 L15.1784884,73.5795348 C14.4972516,73.5795348 13.945,73.0272834 13.945,72.3460466 C13.945,71.8263134 14.2664412,71.381657 14.7213656,71.2000348 L16.8,71.2 C18.2359403,71.2 19.4,70.0359404 19.4,68.6 L19.4,68.6 L19.4,68.4 C19.4,66.9640596 18.2359403,65.8 16.8,65.8 L16.8,65.8 L15.0098143,65.8000498 C15.0082911,65.789368 15.0067717,65.7786852 15.0052562,65.768001 L10.570814,65.7674418 C9.43541926,65.7674418 8.515,64.8470226 8.515,63.711628 C8.515,62.5762332 9.43541926,61.655814 10.570814,61.655814 L14.6192622,61.6561352 C14.5875619,60.9746682 14.5715385,60.2891762 14.5715385,59.6 C14.5715385,53.0739948 16.0083209,46.8783222 18.5874913,41.3027748 L11.4,41.3032558 C8.3072054,41.3032558 5.8,38.7960504 5.8,35.7032558 L5.8,35.3906976 C5.8,32.4061508 8.13477234,29.9669194 11.077491,29.7998292 L36.4,29.8 C37.5045694,29.8 38.4,28.9045694 38.4,27.8 C38.4,26.6954306 37.5045694,25.8 36.4,25.8 L36.4,25.8 L30.538284,25.7998022 C30.5870828,25.7592814 30.6359706,25.7188614 30.684947,25.6785422 L27.7696154,25.6790698 C25.6709334,25.6790698 23.9696154,23.9777518 23.9696154,21.8790698 L23.9696154,21.6669768 C23.9696154,19.5682947 25.6709334,17.8669767 27.7696154,17.8669767 L44.6461044,17.8666297 C49.287959,16.2687102 54.2776502,15.4 59.4734616,15.4 Z" id="背景" fill="#F3F3FA" opacity="0.60159418"></path>
                    <path d="M36.3559504,42.793625 L34.8936858,42.793625 C34.8936858,39.866524 32.5208248,37.4936628 29.5937236,37.4936628 C26.6666226,37.4936628 24.2936858,39.866524 24.2936858,42.793625 L23.2255996,42.793625 C21.8789938,42.793625 20.7873824,43.980169 20.7873824,45.4437196 C20.7873824,46.90727 21.8790694,48.0936628 23.2255996,48.0936628 L36.356026,48.0936628 C37.702783,48.0936628 38.7943188,46.9071944 38.7943188,45.4437196 C38.7943188,43.9800934 37.7027074,42.793625 36.3559504,42.793625 Z" id="路径" fill="url(#linearGradient-1)"></path>
                    <path d="M73.78045,27.7254622 L72.732022,27.7254622 C72.732022,25.6267148 71.0307064,23.9255254 68.931959,23.9255254 C66.8330856,23.9255254 65.1317698,25.6267148 65.1317698,27.7254622 L64.3659068,27.7254622 C63.4004452,27.7254622 62.617686,28.5763092 62.617686,29.6256198 C62.617686,30.6749306 63.4004452,31.5255254 64.3659068,31.5255254 L73.78045,31.5255254 C74.7460378,31.5255254 75.5286708,30.6749306 75.5286708,29.6256198 C75.5286708,28.5763092 74.7460378,27.7254622 73.78045,27.7254622 Z" id="路径" fill="url(#linearGradient-2)"></path>
                    <path d="M56.9,83 C69.1759252,83 80.230481,84.001356 87.957604,85.6007794 C95.5150126,85.651078 101.6,87.9148106 101.6,90.7 C101.6,92.907321 97.7780832,94.7871206 92.4298178,95.4971398 C91.1533646,95.8747964 89.7165272,96.2307686 88.1382906,96.5615844 C88.1793746,96.7723396 88.2,96.9852716 88.2,97.2 C88.2,102.060106 77.63392,106 64.6,106 C52.8735978,106 43.1447402,102.81093 41.310817,98.6318172 C25.6638714,97.4436656 14.6,94.5192472 14.6,91.1 C14.6,86.6264936 33.538355,83 56.9,83 Z" id="形状结合" fill="#E7EAF0"></path>
                    <g id="树备份" transform="translate(18.400000, 74.000000)">
                        <path d="M74.2625,6.11354582 C74.2791666,6.17941568 74.3,6.2494024 74.325,6.32350598 L74.375,6.52111554 C74.3916666,6.5869854 74.4,6.64050466 74.4,6.6816733 C74.4,6.9122178 74.3375,7.11600266 74.2125,7.2930279 C74.0875,7.47005312 73.925,7.5997344 73.725,7.68207172 C73.65,7.69030544 73.5708334,7.6944223 73.4875,7.6944223 C73.4208334,7.70265604 73.3458334,7.7067729 73.2625,7.7067729 L73.025,7.7067729 L71.075,7.7314741 L71.075,9.7940239 C71.075,10.098672 71.08125,10.4053785 71.09375,10.7141434 C71.10625,11.0229084 71.1208334,11.3007968 71.1375,11.5478088 C71.1541666,11.8442231 71.175,12.1282868 71.2,12.4 L69.4,12.4 L69.4375,11.9183267 C69.4458334,11.7289509 69.4541666,11.4716468 69.4625,11.1464143 C69.4708334,10.8211819 69.475,10.3868526 69.475,9.8434263 L69.475,7.95378486 C69.3333334,8.07729084 69.175,8.13904382 69,8.13904382 C68.8583334,8.13904382 68.7354166,8.1061089 68.63125,8.04023904 C68.5270834,7.97436918 68.4416666,7.88379814 68.375,7.7685259 L66.9625,7.6944223 C66.6875,7.62855246 66.4583334,7.49063744 66.275,7.28067728 C66.0916666,7.07071712 66,6.82164674 66,6.53346614 C66,6.48406374 66.0041666,6.43877822 66.0125,6.39760956 C66.0208334,6.3564409 66.0333334,6.31527224 66.05,6.27410358 L66.3625,5.55776892 C66.3791666,5.37662682 66.43125,5.20783532 66.51875,5.05139442 C66.60625,4.89495352 66.7166666,4.75909694 66.85,4.6438247 L68.8125,1.04980079 L68.825,1.04980079 C68.9833334,0.761620186 69.1708334,0.514608234 69.3875,0.30876494 C69.6041666,0.102921647 69.8833334,0 70.225,0 C70.525,0 70.79375,0.0782204512 71.03125,0.234661354 C71.26875,0.391102256 71.4458334,0.59694555 71.5625,0.852191234 L73.1375,3.90278884 C73.4208334,4.00159362 73.6541666,4.174502 73.8375,4.42151394 C74.0208334,4.66852588 74.1125,4.95258964 74.1125,5.27370518 C74.1125,5.40544488 74.0916666,5.54541832 74.05,5.6936255 L74.2625,6.11354582 Z" id="路径" fill="url(#linearGradient-3)"></path>
                        <path d="M82.2625,10.1135458 C82.2791666,10.1794157 82.3,10.2494024 82.325,10.323506 L82.375,10.5211155 C82.3916666,10.5869854 82.4,10.6405047 82.4,10.6816733 C82.4,10.9122178 82.3375,11.1160027 82.2125,11.2930279 C82.0875,11.4700531 81.925,11.5997344 81.725,11.6820717 C81.65,11.6903054 81.5708334,11.6944223 81.4875,11.6944223 C81.4208334,11.702656 81.3458334,11.7067729 81.2625,11.7067729 L81.025,11.7067729 L79.075,11.7314741 L79.075,13.7940239 C79.075,14.098672 79.08125,14.4053785 79.09375,14.7141434 C79.10625,15.0229084 79.1208334,15.3007968 79.1375,15.5478088 C79.1541666,15.8442231 79.175,16.1282868 79.2,16.4 L77.4,16.4 L77.4375,15.9183267 C77.4458334,15.7289509 77.4541666,15.4716468 77.4625,15.1464143 C77.4708334,14.8211819 77.475,14.3868526 77.475,13.8434263 L77.475,11.9537849 C77.3333334,12.0772908 77.175,12.1390438 77,12.1390438 C76.8583334,12.1390438 76.7354166,12.1061089 76.63125,12.040239 C76.5270834,11.9743692 76.4416666,11.8837981 76.375,11.7685259 L74.9625,11.6944223 C74.6875,11.6285525 74.4583334,11.4906374 74.275,11.2806773 C74.0916666,11.0707171 74,10.8216467 74,10.5334661 C74,10.4840637 74.0041666,10.4387782 74.0125,10.3976096 C74.0208334,10.3564409 74.0333334,10.3152722 74.05,10.2741036 L74.3625,9.55776892 C74.3791666,9.37662682 74.43125,9.20783532 74.51875,9.05139442 C74.60625,8.89495352 74.7166666,8.75909694 74.85,8.6438247 L76.8125,5.0498008 L76.825,5.0498008 C76.9833334,4.76162018 77.1708334,4.51460824 77.3875,4.30876494 C77.6041666,4.10292164 77.8833334,4 78.225,4 C78.525,4 78.79375,4.07822046 79.03125,4.23466136 C79.26875,4.39110226 79.4458334,4.59694554 79.5625,4.85219124 L81.1375,7.90278884 C81.4208334,8.00159362 81.6541666,8.174502 81.8375,8.42151394 C82.0208334,8.66852588 82.1125,8.95258964 82.1125,9.27370518 C82.1125,9.40544488 82.0916666,9.54541832 82.05,9.6936255 L82.2625,10.1135458 Z" id="路径" fill="url(#linearGradient-3)"></path>
                        <path d="M11.6068452,8.67729084 C11.6302579,8.77078356 11.6595238,8.87011954 11.6946429,8.9752988 L11.7648809,9.2557769 C11.7882936,9.3492696 11.8,9.42523242 11.8,9.48366534 C11.8,9.81088978 11.7122024,10.1001328 11.5366071,10.3513944 C11.3610119,10.602656 11.1327381,10.7867198 10.8517857,10.9035857 C10.7464286,10.9152722 10.6352183,10.9211155 10.5181548,10.9211155 C10.424504,10.9328021 10.3191468,10.9386454 10.2020833,10.9386454 L9.86845238,10.9386454 L7.12916666,10.9737052 L7.12916666,13.9011952 C7.12916666,14.3335989 7.13794642,14.7689243 7.15550594,15.2071713 C7.17306546,15.6454183 7.19355158,16.0398406 7.21696428,16.3904382 C7.24037698,16.8111554 7.26964286,17.2143426 7.3047619,17.6 L4.77619048,17.6 L4.82886904,16.9163347 C4.8405754,16.6475432 4.85228174,16.2823373 4.8639881,15.8207171 C4.87569446,15.3590969 4.88154764,14.7426295 4.88154762,13.9713147 L4.88154762,11.289243 C4.68253968,11.4645418 4.46011906,11.5521912 4.21428572,11.5521912 C4.01527778,11.5521912 3.84260914,11.5054449 3.69627978,11.4119522 C3.5499504,11.3184595 3.42996032,11.189907 3.33630952,11.0262948 L1.35208334,10.9211155 C0.96577381,10.8276228 0.643849206,10.6318725 0.386309524,10.3338645 C0.128769841,10.0358566 0,9.68233732 0,9.27330678 C0,9.20318724 0.00585317276,9.13891102 0.0175595183,9.08047808 C0.0292658638,9.02204514 0.0468253878,8.9636122 0.0702380904,8.90517928 L0.509226186,7.88844622 C0.532638888,7.6313413 0.60580357,7.39176628 0.728720234,7.16972112 C0.851636896,6.94767596 1.00674602,6.75484728 1.19404761,6.59123506 L3.95089284,1.49003984 L3.96845236,1.49003984 C4.190873,1.0810093 4.45426584,0.730411686 4.75863092,0.438247012 C5.062996,0.146082337 5.4551587,0 5.93511902,0 C6.35654758,0 6.73407734,0.111022576 7.0677083,0.333067728 C7.40133926,0.55511288 7.65009918,0.847277554 7.81398808,1.20956175 L10.0264881,5.53944224 C10.4245039,5.67968128 10.7522817,5.9250996 11.0098214,6.2756972 C11.2673611,6.6262948 11.3961309,7.02948206 11.3961309,7.48525896 C11.3961309,7.67224434 11.366865,7.87091632 11.3083333,8.0812749 L11.6068452,8.67729084 Z" id="路径" fill="url(#linearGradient-4)"></path>
                    </g>
                    <ellipse id="椭圆形" fill="#D1D6E2" cx="60.3" cy="93.2197486" rx="6.9" ry="1.8"></ellipse>
                    <g id="文件夹" transform="translate(40.600000, 48.200000)">
                        <path d="M2.6,4.4 L12.5920465,4.4 L14.2523188,7.03030398 L28.188615,7.00551246 C31.7232318,6.99922468 34.593702,9.85950048 34.6,13.3941173 C34.6,13.3979123 34.6,13.4017073 34.6,13.4055023 L34.6,33.6 L34.6,33.6 L2.6,33.6 L2.6,4.4 Z" id="矩形" fill="#D9DFE8"></path>
                        <rect id="矩形" fill="#A2ABB9" x="6" y="10.8" width="26" height="28.8"></rect>
                        <rect id="矩形" fill="#FFFFFF" x="5.4" y="13.6" width="27.2" height="25.4"></rect>
                        <rect id="矩形" fill="#C8CEDE" x="5.2" y="15.4" width="28.2" height="23.4"></rect>
                        <polygon id="矩形" fill="url(#linearGradient-5)" points="0 18 38 18 34.5454546 39.6 3.45454546 39.6"></polygon>
                        <rect id="矩形" fill="#D9DFE8" x="22" y="27.4" width="1.4" height="1.4" rx="0.7"></rect>
                        <rect id="矩形" fill="#D9DFE8" x="24.8" y="27.4" width="6.2" height="1.4" rx="0.7"></rect>
                        <rect id="矩形备份-2" fill="#D9DFE8" x="21.8" y="30.4" width="9" height="1.4" rx="0.7"></rect>
                        <circle id="椭圆形" fill="#D9DFE8" cx="17" cy="3" r="3"></circle>
                        <polygon id="星形" fill="#FFFFFF" points="17 4 15.8244295 4.61803398 16.0489435 3.309017 15.097887 2.38196602 16.4122147 2.190983 17 1 17.5877853 2.190983 18.902113 2.38196602 17.9510565 3.309017 18.1755705 4.61803398"></polygon>
                    </g>
                    <polygon id="路径" fill="url(#linearGradient-6)" transform="translate(74.000000, 41.200000) scale(-1, 1) rotate(28.000000) translate(-74.000000, -41.200000) " points="74.5802177 44.0156212 77.2842578 45.1896367 78.6 36.4 69.4 41.8233347 71.8139976 42.9662843 77.6468773 37.6467758 72.9639087 43.5065336 72.9017393 46"></polygon>
                    <path d="M79.0636701,45.809557 C79.3451996,45.9927096 79.6203797,46.1768544 79.8892104,46.36199 C80.0029247,46.4403016 80.1585924,46.4116021 80.2369041,46.2978878 C80.3152157,46.1841735 80.2865162,46.0285058 80.1728019,45.9501941 C79.9003337,45.7625534 79.6215097,45.5759702 79.3363299,45.390443 C79.2205948,45.31515 79.0657359,45.3479349 78.990443,45.4636701 C78.91515,45.5794052 78.9479349,45.7342641 79.0636701,45.809557 Z M80.6982982,46.9361933 C80.9694234,47.1345988 81.2334101,47.334113 81.4902589,47.534734 C81.599071,47.6197256 81.75618,47.6004152 81.8411716,47.4916031 C81.9261632,47.382791 81.9068529,47.225682 81.7980408,47.1406904 C81.5370415,46.9368275 81.2688857,46.7341625 80.9935737,46.5326932 C80.8821502,46.4511551 80.725724,46.475382 80.6441859,46.5868055 C80.5626478,46.698229 80.5868747,46.8546552 80.6982982,46.9361933 Z M82.262903,48.1595967 C82.5201928,48.3752209 82.7694174,48.5920887 83.0105784,48.8101978 C83.1129809,48.9028119 83.2710731,48.8948769 83.3636873,48.7924744 C83.4563014,48.6900719 83.4483664,48.5319796 83.3459639,48.4393655 C83.1001021,48.217005 82.8461347,47.9960101 82.5840629,47.7763783 C82.47824,47.6876925 82.3205596,47.7015848 82.2318737,47.8074076 C82.1431879,47.9132305 82.1570802,48.0709109 82.262903,48.1595967 Z M83.7356038,49.4935099 C83.974606,49.7285335 84.2044596,49.9649573 84.4251675,50.2027786 C84.5190894,50.303983 84.6772705,50.3098867 84.7784749,50.2159648 C84.8796793,50.1220429 84.885583,49.9638618 84.7916612,49.8626574 C84.5657299,49.6192078 84.3305676,49.3773235 84.0861773,49.1370016 C83.9877302,49.0401933 83.8294445,49.0415219 83.7326363,49.139969 C83.6358281,49.238416 83.6371567,49.3967017 83.7356038,49.4935099 Z M85.0900086,50.9563632 C85.3045291,51.2126596 85.5086856,51.4705329 85.7024841,51.729981 C85.7851117,51.8405989 85.9417682,51.8632895 86.0523861,51.7806618 C86.1630041,51.6980342 86.1856947,51.5413777 86.103067,51.4307598 C85.9037048,51.1638633 85.6938228,50.898758 85.4734267,50.6354417 C85.3848067,50.5295638 85.2271349,50.5155734 85.1212569,50.6041934 C85.015379,50.6928134 85.0013886,50.8504852 85.0900086,50.9563632 Z M86.2619972,52.5269996 C86.4447386,52.8048873 86.6158937,53.0845374 86.7754718,53.3659511 C86.8435782,53.4860559 86.9961536,53.5282089 87.1162584,53.4601024 C87.2363632,53.391996 87.2785162,53.2394206 87.2104097,53.1193158 C87.0453796,52.8282875 86.8684935,52.5392734 86.6797606,52.2522747 C86.6038974,52.1369125 86.4488786,52.1048923 86.3335164,52.1807555 C86.2181543,52.2566187 86.186134,52.4116374 86.2619972,52.5269996 Z M87.2378326,54.253962 C87.3796246,54.5525383 87.5087376,54.853065 87.6251826,55.1555505 C87.674786,55.2844037 87.8194537,55.3486483 87.9483069,55.2990449 C88.0771601,55.2494415 88.1414048,55.1047738 88.0918014,54.9759206 C87.9707901,54.6615736 87.8366827,54.3494216 87.68949,54.0394728 C87.6302605,53.9147511 87.4811385,53.8616592 87.3564167,53.9208887 C87.231695,53.9801183 87.1786031,54.1292403 87.2378326,54.253962 Z M87.9504777,56.1161629 C88.0426607,56.4308455 88.1215221,56.7476314 88.1870688,57.0665364 C88.2148664,57.2017804 88.3470378,57.2888829 88.4822818,57.2610853 C88.6175258,57.2332876 88.7046283,57.1011162 88.6768307,56.9658722 C88.6085188,56.6335138 88.5263439,56.3034178 88.4303132,55.9756001 C88.3914978,55.8430972 88.2526169,55.7671484 88.120114,55.8059638 C87.9876111,55.8447791 87.9116623,55.98366 87.9504777,56.1161629 Z M88.3506862,58.0882602 C88.3880115,58.4117619 88.4120271,58.7374377 88.4227313,59.0653048 C88.4272367,59.2033025 88.5427582,59.3115194 88.6807559,59.307014 C88.8187535,59.3025087 88.9269704,59.1869872 88.9224651,59.0489895 C88.9113144,58.7074462 88.8862902,58.3680942 88.847391,58.0309509 C88.8315654,57.8937896 88.7075452,57.7954276 88.5703839,57.8112531 C88.4332227,57.8270787 88.3348607,57.9510989 88.3506862,58.0882602 Z M88.4188926,59.9655997 C88.4057034,60.2894017 88.3798392,60.615329 88.3412924,60.9433932 C88.3251802,61.0805211 88.4232827,61.2047467 88.5604106,61.2208589 C88.6975384,61.2369712 88.8217641,61.1388686 88.8378763,61.0017408 C88.8778995,60.6611113 88.9047694,60.3225102 88.9184784,59.985949 C88.9240977,59.8479922 88.8168169,59.7316008 88.6788601,59.7259815 C88.5409033,59.7203622 88.4245119,59.8276429 88.4188926,59.9655997 Z M88.1870723,61.9367296 C88.1259154,62.254378 88.0531646,62.5739982 87.9688113,62.8955946 C87.9337808,63.029148 88.0136494,63.1658123 88.1472028,63.2008427 C88.2807563,63.2358732 88.4174205,63.1560046 88.452451,63.0224512 C88.5395903,62.6902336 88.6147945,62.3598346 88.6780552,62.0312585 C88.7041587,61.8956773 88.6154094,61.764606 88.4798282,61.7385025 C88.344247,61.7123991 88.2131757,61.8011484 88.1870723,61.9367296 Z M87.6815391,63.8644877 C87.5800588,64.1717357 87.4682361,64.4807466 87.3460648,64.7915201 C87.2955494,64.9200186 87.3587672,65.0651379 87.4872657,65.1156533 C87.6157641,65.1661686 87.7608835,65.1029508 87.8113988,64.9744524 C87.9369323,64.6551266 88.0519057,64.337409 88.1563127,64.0212996 C88.1996151,63.8901944 88.128437,63.7488092 87.9973319,63.7055068 C87.8662267,63.6622044 87.7248415,63.7333825 87.6815391,63.8644877 Z M86.9500944,65.7256163 C86.8159866,66.0207756 86.672748,66.3174843 86.5203748,66.6157406 C86.4575596,66.7386955 86.5063125,66.8892919 86.6292674,66.9521071 C86.7522223,67.0149223 86.9028187,66.9661694 86.9656339,66.8432145 C87.1214558,66.5382076 87.2680157,66.234619 87.4053099,65.9324468 C87.4624246,65.8067425 87.4068217,65.6585385 87.2811174,65.6014238 C87.1554132,65.5443091 87.0072091,65.599912 86.9500944,65.7256163 Z M86.037763,67.5117676 C85.8776617,67.7945985 85.709513,68.0787857 85.533315,68.3643272 C85.4608089,68.4818284 85.4972847,68.6358597 85.6147859,68.7083657 C85.7322871,68.7808717 85.8863184,68.7443959 85.9588244,68.6268947 C86.1383034,68.3360361 86.309658,68.0464307 86.4728859,67.7580766 C86.5409022,67.6379207 86.4986348,67.485377 86.3784789,67.4173607 C86.2583231,67.3493443 86.1057794,67.3916118 86.037763,67.5117676 Z M84.9822553,69.2224873 C84.8014875,69.4935098 84.6136045,69.7657233 84.4186052,70.0391262 C84.3384315,70.1515354 84.3645635,70.3076547 84.4769727,70.3878284 C84.589382,70.4680021 84.7455012,70.44187 84.8256749,70.3294608 C85.0236838,70.0518384 85.2145323,69.7753283 85.3982195,69.4999289 C85.4748329,69.3850636 85.4438235,69.2298394 85.3289582,69.153226 C85.2140929,69.0766126 85.0588687,69.1076219 84.9822553,69.2224873 Z M83.8141795,70.8603674 C83.6168845,71.1204596 83.4132613,71.3816047 83.2033093,71.6438013 C83.1170082,71.7515778 83.1344173,71.9089088 83.2421937,71.9952099 C83.3499702,72.0815111 83.5073012,72.064102 83.5936023,71.9563255 C83.8062687,71.6907391 84.0125805,71.4261459 84.2125372,71.1625446 C84.2959812,71.0525412 84.2744504,70.8957211 84.164447,70.8122771 C84.0544435,70.7288332 83.8976234,70.7503639 83.8141795,70.8603674 Z M82.5531423,72.4351167 L82.1121846,72.9504526 C82.0216233,73.054675 82.0326978,73.2125784 82.1369202,73.3031397 C82.2411425,73.393701 82.3990459,73.3826265 82.4896072,73.2784041 L82.9355518,72.7572392 C83.0245035,72.6516397 83.0110078,72.4939248 82.9054083,72.4049732 C82.7998089,72.3160215 82.642094,72.3295172 82.5531423,72.4351167 Z" id="路径-26" fill="#D1D6E2"></path>
                </g>
            </g>
        </g>
    </g>
</svg>