<?xml version="1.0" encoding="UTF-8"?>
<svg width="12px" height="14px" viewBox="0 0 12 14" version="1.1" xmlns="http://www.w3.org/2000/svg" xmlns:xlink="http://www.w3.org/1999/xlink">
    <defs>
        <linearGradient x1="59.2979017%" y1="16.7256282%" x2="50%" y2="100%" id="linearGradient-1">
            <stop stop-color="#B8C4DD" stop-opacity="0.351480551" offset="0%"></stop>
            <stop stop-color="#B8C4DD" stop-opacity="0.8" offset="100%"></stop>
        </linearGradient>
    </defs>
    <g id="页面-1" stroke="none" stroke-width="1" fill="none" fill-rule="evenodd">
        <g id="工艺流程编辑器" transform="translate(-538.000000, -186.000000)">
            <g id="编组-2" transform="translate(529.000000, 108.000000)">
                <g id="编组-12" transform="translate(0.000000, 70.000000)">
                    <g id="gongxu_grey_icon" transform="translate(9.000000, 8.000000)">
                        <path d="M2,1 L10,1 C11.1045695,1 12,1.8954305 12,3 L12,12.8597765 C12,13.4120613 11.5522847,13.8597765 11,13.8597765 C10.7654241,13.8597765 10.5383137,13.7773121 10.3583872,13.6268052 L6.02265133,10 L6.02265133,10 L1.63876014,13.6395027 C1.21382898,13.9922802 0.58337156,13.9337881 0.230594074,13.5088569 C0.0815713101,13.3293545 2.85710141e-17,13.1033968 0,12.8700968 L0,3 C-1.3527075e-16,1.8954305 0.8954305,1 2,1 Z" id="矩形" fill="#DCE4F2"></path>
                        <path d="M2,1 L10,1 C11.1045695,1 12,1.8954305 12,3 L12,12.8597765 C12,13.4120613 11.5522847,13.8597765 11,13.8597765 C10.7654241,13.8597765 10.5383137,13.7773121 10.3583872,13.6268052 L6.02265133,10 L6.02265133,10 L0,4.9922783 L0,3 C-1.3527075e-16,1.8954305 0.8954305,1 2,1 Z" id="矩形备份-24" fill="url(#linearGradient-1)"></path>
                    </g>
                </g>
            </g>
        </g>
    </g>
</svg>
