<?xml version="1.0" encoding="UTF-8"?>
<svg width="14px" height="14px" viewBox="0 0 14 14" version="1.1" xmlns="http://www.w3.org/2000/svg" xmlns:xlink="http://www.w3.org/1999/xlink">
    <g id="页面-1" stroke="none" stroke-width="1" fill="none" fill-rule="evenodd">
        <g id="带结构树" transform="translate(-398.000000, -462.000000)" fill="#3AB0C0" fill-rule="nonzero">
            <g id="hover_delete_icon-2" transform="translate(398.000000, 462.000000)">
                <path d="M9.25720117,1 C10.1978369,1 10.9701069,1.74019421 11.0053807,2.67564767 L11.0065588,2.74093264 L11.006,3.321 L13.414268,3.32124352 C13.7288089,3.31984265 13.9877803,3.56696413 13.9995822,3.87977503 C14.011384,4.19258594 13.7717625,4.45833801 13.4580016,4.4804145 L13.414268,4.48186529 L12.5396095,4.48112016 C12.5396106,4.4821417 12.5396091,4.48316383 12.539605,4.48418653 L12.5378458,4.52770984 L11.7054487,11.9307772 C11.6593139,12.5121415 11.1868596,12.9691595 10.6016115,12.9985492 L10.5430084,13 L4.45699181,13 C3.87091352,13 3.37584027,12.5672135 3.30038269,11.9888083 L3.29455154,11.9307772 L2.46215449,4.52741968 L2.462,4.481 L1.58573226,4.48186529 C1.27119125,4.48326629 1.01221966,4.23614478 1.00041781,3.92333378 C0.988615954,3.61052277 1.22823765,3.34477064 1.54199861,3.32269429 L1.58573226,3.32124352 L4.015,3.321 L4.01559734,2.74093264 C4.01559734,1.80482075 4.75936857,1.03626481 5.69934265,1.00116061 L5.76494312,1 L9.25720117,1 Z M4.55,4.481 L3.629,4.481 L4.45699181,11.8393782 L10.5430084,11.8393782 L11.37,4.481 L10.4707905,4.48255507 C10.4623503,4.48323368 10.4538577,4.48373447 10.4453163,4.48405363 L10.375,4.481 L4.64607142,4.48255507 C4.63763121,4.48323368 4.62913858,4.48373447 4.6205972,4.48405363 L4.55,4.481 Z M9.91557644,9.51813471 L9.91557644,10.0984456 C9.91557644,10.2523536 9.85414125,10.399958 9.74478593,10.5087874 C9.6354306,10.6176168 9.48711295,10.6787565 9.33246117,10.6787565 L5.66753909,10.6787565 C5.51288731,10.6787565 5.36456966,10.6176168 5.25521433,10.5087874 C5.145859,10.399958 5.08442382,10.2523536 5.08442382,10.0984456 L5.08442382,9.51813471 L9.91557644,9.51813471 Z M9.25720117,2.16062175 L5.76494312,2.16062175 C5.45979168,2.16052564 5.20617198,2.39458075 5.18328565,2.69740933 L5.18182785,2.74093264 L5.181,3.321 L9.84,3.321 L9.84031644,2.74093264 C9.84041301,2.43724877 9.60522682,2.18484881 9.30093481,2.16207254 L9.25720117,2.16062175 Z" id="hover_delete_icon"></path>
            </g>
        </g>
    </g>
</svg>
