<?xml version="1.0" encoding="UTF-8"?>
<svg width="14px" height="14px" viewBox="0 0 14 14" version="1.1" xmlns="http://www.w3.org/2000/svg" xmlns:xlink="http://www.w3.org/1999/xlink">
    <g id="页面-1" stroke="none" stroke-width="1" fill="none" fill-rule="evenodd">
        <g id="带结构树" transform="translate(-376.000000, -462.000000)" fill="#3AB0C0" fill-rule="nonzero">
            <g id="hover_edit_icon-2" transform="translate(376.000000, 462.000000)">
                <path d="M10.2565158,0.2826022 L12.5934829,2.35559715 C13.0755562,2.78156397 13.1383812,3.54725891 12.7309515,4.05358448 L5.4619236,12.8914768 L1.56988132,13.9838334 C1.42672828,14.0240608 1.27389291,13.9881773 1.1606741,13.8877576 C1.04745529,13.7873379 0.988179868,13.6350892 1.00196784,13.4801212 L1.36896559,9.26553232 L8.63985961,0.42763998 C9.04875651,-0.0800745689 9.7715597,-0.14492062 10.2565158,0.2826022 Z M2.404,9.811 L2.19439952,12.2277003 C2.18675845,12.3205819 2.22247736,12.4115875 2.2902184,12.4718305 C2.35795944,12.5320734 2.44930938,12.5540716 2.53527201,12.5308423 L4.776,11.9 L2.404,9.811 Z M7.53,3.517 L3.173,8.782 L5.634,10.951 L9.99,5.685 L7.53,3.517 Z M9.06906037,1.6571945 L8.346,2.531 L10.807,4.699 L11.5235911,3.83341453 C11.7678291,3.52781067 11.7311389,3.07238565 11.4414831,2.81423013 L10.0388053,1.57095582 C9.74793298,1.31487062 9.31479758,1.35338902 9.06906037,1.6571945 Z" id="hover_edit_icon"></path>
            </g>
        </g>
    </g>
</svg>
