<?xml version="1.0" encoding="UTF-8"?>
<svg width="20px" height="20px" viewBox="0 0 20 20" version="1.1" xmlns="http://www.w3.org/2000/svg" xmlns:xlink="http://www.w3.org/1999/xlink">
    <g id="页面-1" stroke="none" stroke-width="1" fill="none" fill-rule="evenodd">
        <g id="侧边导航-收起-绿" transform="translate(-16.000000, -238.000000)">
            <g id="Repeat-Group" transform="translate(0.000000, 140.000000)">
                <g id="编组-12备份" transform="translate(0.000000, 88.000000)">
                    <g id="nav_gygl_icon_grey" transform="translate(16.000000, 10.000000)">
                        <rect id="矩形" x="0" y="0" width="20" height="20" rx="4"></rect>
                        <path d="M5.34810084,7.02608403 C4.23925239,7.02489835 3.34108484,6.1267308 3.33989916,5.01842016 C3.3404923,3.90977674 4.23891981,3.01110856 5.34756303,3.01021849 C6.22152077,3.01068594 6.96502709,3.56895159 7.24131685,4.34834047 L13.7132773,4.34884034 C15.5606068,4.35121135 17.0574889,5.84833401 17.059563,7.69566387 C17.0571926,9.5427837 15.5603971,11.0395792 13.7132773,11.0419496 L12.2609555,11.0423007 C11.9849484,11.8215548 11.2417907,12.37987 10.3680672,12.3805714 C9.49405191,12.3801037 8.75056723,11.8216228 8.47456146,11.0420772 L6.35166387,11.0419496 C5.24335323,11.0431353 4.34518568,11.9413028 4.344,13.0496134 C4.34548134,14.1578014 5.2434759,15.055796 6.35166387,15.0572773 L12.8251636,15.0569939 C13.1017549,14.2783494 13.8446327,13.7206648 14.717916,13.7197311 C15.8261039,13.7212124 16.7240985,14.619207 16.7255798,15.727395 C16.7240985,16.8355829 15.8261039,17.7335775 14.717916,17.7350588 L14.7173781,17.7350588 C13.843643,17.7338909 13.1005707,17.1754225 12.8245376,16.3960301 L6.35220168,16.3958992 C4.50487182,16.393825 3.00774915,14.8969429 3.00537815,13.0496134 C3.00774854,11.2024936 4.50454404,9.70569812 6.35166387,9.70332774 L8.47446935,9.70346098 C8.75040596,8.92376291 9.49397303,8.36517353 10.3680672,8.36470588 C11.2413784,8.36540687 11.9842739,8.92320327 12.2605819,9.70192313 L13.7138151,9.70278991 C14.8219161,9.70160481 15.719997,8.80376446 15.721479,7.69566387 C15.7202939,6.58726589 14.8222128,5.68894417 13.7138151,5.68746219 L7.24108778,5.68816057 C6.96468206,6.46715023 6.22163107,7.02515005 5.34810084,7.02608403 Z M14.7173781,15.0578151 C14.3580134,15.0722215 14.0741028,15.3677416 14.0741028,15.727395 C14.0741028,16.0870483 14.3580134,16.3825685 14.7173781,16.3969748 C15.0767428,16.3825685 15.3606535,16.0870483 15.3606535,15.727395 C15.3606535,15.3677416 15.0767428,15.0722215 14.7173781,15.0578151 Z M10.3680672,9.70278991 L10.3680672,9.70332774 C10.0111797,9.72085551 9.73082136,10.015321 9.73082136,10.3726387 C9.73082136,10.7299563 10.0111797,11.0244218 10.3680672,11.0419496 C10.7274319,11.0275432 11.0113425,10.7320231 11.0113425,10.3723697 C11.0113425,10.0127164 10.7274319,9.71719624 10.3680672,9.70278991 Z M5.34756303,4.34884034 C4.98819833,4.36324667 4.70428772,4.65876682 4.70428772,5.01842017 C4.70428772,5.37807351 4.98819833,5.67359367 5.34756303,5.688 C5.70692773,5.67359367 5.99083834,5.37807351 5.99083834,5.01842017 C5.99083834,4.65876682 5.70692773,4.36324667 5.34756303,4.34884034 Z" id="形状结合" fill="#72747F" fill-rule="nonzero"></path>
                    </g>
                </g>
            </g>
        </g>
    </g>
</svg>