<?xml version="1.0" encoding="UTF-8"?>
<svg width="20px" height="20px" viewBox="0 0 20 20" version="1.1" xmlns="http://www.w3.org/2000/svg" xmlns:xlink="http://www.w3.org/1999/xlink">
    <g id="页面-1" stroke="none" stroke-width="1" fill="none" fill-rule="evenodd">
        <g id="侧边导航-收起-绿" transform="translate(-16.000000, -502.000000)">
            <g id="Repeat-Group" transform="translate(0.000000, 140.000000)">
                <g id="编组-12备份" transform="translate(0.000000, 352.000000)">
                    <g id="nav_scgl_icon_grey" transform="translate(16.000000, 10.000000)">
                        <rect id="矩形" x="0" y="0" width="20" height="20" rx="4"></rect>
                        <path d="M13.0610284,14.2740392 C13.0610284,14.8239651 13.498292,15.269037 14.0370632,15.269037 C14.5758344,15.269037 15.0130981,14.8228497 15.0130981,14.2740392 C15.0174318,13.7303018 14.5807899,13.2856756 14.0370632,13.2801569 C13.498292,13.2801569 13.0610284,13.7252288 13.0610284,14.2740392 Z M15.882048,10.9588671 L12.1920785,10.9588671 L10.3627103,14.2740392 L12.1920785,17.5903268 L15.882048,17.5903268 L17.7114161,14.2740392 L15.882048,10.9588671 Z M15.120183,12.285159 L16.2178039,14.2740392 L15.120183,16.2640348 L12.9539434,16.2640348 L11.855207,14.2740392 L12.9528279,12.285159 L15.120183,12.285159 Z M6.55338565,3 C6.8835643,3 7.16131592,3.25209586 7.20035732,3.5856209 L7.2048192,3.66370371 L7.2048192,6.5694989 L11.467024,4.39656645 C11.6568253,4.30008723 11.8821695,4.304268 12.0682615,4.40772112 C12.2545447,4.51034422 12.3805926,4.69885837 12.4051329,4.91414378 L12.4095948,4.98999563 L12.4095948,6.5694989 L16.6729151,4.39656645 C16.862416,4.30048319 17.0872377,4.30466202 17.2730371,4.40772112 C17.4604357,4.51034422 17.5853682,4.69885837 17.6099085,4.91414378 L17.6145096,4.98999563 L17.6145096,8.96106318 C17.6169402,9.30908897 17.3480979,9.59894982 17.0008628,9.62253594 C16.6547981,9.63931307 16.355565,9.38359589 16.3181961,9.03914596 L16.3137342,8.96217865 L16.3137342,6.06196078 L12.0492985,8.23600871 C11.8597976,8.33209196 11.6349759,8.32791312 11.4491765,8.22485402 C11.2615929,8.12046122 11.136086,7.93178541 11.112305,7.71843137 L11.1078432,7.64257951 L11.1078432,6.06307625 L6.8445229,8.23600871 C6.65502198,8.33209196 6.4302003,8.32791312 6.2444009,8.22485402 C6.05681726,8.12046123 5.93131043,7.93178541 5.90752943,7.71843137 L5.90306757,7.64257951 L5.90306757,4.32629194 L3.30179524,4.32629194 L3.30179524,14.9377429 L9.17585189,14.9377429 C9.50603053,14.9377429 9.78378216,15.1898388 9.82282355,15.5233638 L9.82728543,15.6014466 C9.82998688,15.9346068 9.58328888,16.2172317 9.2528192,16.259573 L9.17585189,16.2640348 L2.73887845,16.2640348 C2.40603878,16.2613593 2.12816775,16.0094037 2.09302224,15.6784139 L2.08851676,15.6003312 L2.08851676,3.66370371 C2.0858589,3.33054354 2.33255691,3.04791864 2.66302659,3.00557733 L2.7399939,3 L6.55561659,3 L6.55338565,3 Z M5.31286691,9.69009925 C4.95044148,9.69377817 4.65945339,9.9902566 4.66254883,10.3526875 L4.66254883,12.886625 C4.66254883,13.2536141 4.95257062,13.5503287 5.31286691,13.5503287 L7.78795485,13.5503287 C7.96240205,13.5488569 8.12910181,13.4780662 8.25130276,13.3535635 C8.37350372,13.2290609 8.44117173,13.0610693 8.4393884,12.886625 L8.4393884,10.3526875 C8.4408739,10.1784355 8.37307397,10.010731 8.25090514,9.88647019 C8.1287363,9.76220942 7.96220695,9.69157219 7.78795485,9.69009925 L5.31286691,9.69009925 Z M7.2048192,12.285159 L5.90306757,12.285159 L5.90306757,10.9577516 L7.20593467,10.9577516 L7.2048192,12.285159 Z" id="形状" fill="#3AB0C0" fill-rule="nonzero"></path>
                    </g>
                </g>
            </g>
        </g>
    </g>
</svg>