<?xml version="1.0" encoding="UTF-8"?>
<svg width="20px" height="20px" viewBox="0 0 20 20" version="1.1" xmlns="http://www.w3.org/2000/svg" xmlns:xlink="http://www.w3.org/1999/xlink">
    <g id="页面-1" stroke="none" stroke-width="1" fill="none" fill-rule="evenodd">
        <g id="侧边导航-收起-绿" transform="translate(-16.000000, -414.000000)">
            <g id="Repeat-Group" transform="translate(0.000000, 140.000000)">
                <g id="编组-12备份" transform="translate(0.000000, 264.000000)">
                    <g id="nav_zlgl_icon_grey" transform="translate(16.000000, 10.000000)">
                        <rect id="矩形" x="0" y="0" width="20" height="20" rx="4"></rect>
                        <path d="M10,2.0190099 L17,4.23683168 L17,11.3592079 C17,15.021802 10,17.9999802 10,17.9999802 C10,17.9999802 3,15.021802 3,11.3592079 L3,11.3592079 L3,4.23683168 L10,2.0190099 Z M10,3.21029703 L4.1708892,5.04794059 L4.1708892,11.3465149 C4.1708892,11.929505 4.45092898,12.550495 4.99818182,13.2222178 C5.50723295,13.8431881 6.23270739,14.4768515 7.1491108,15.1105149 C8.25636364,15.8708911 9.3891108,16.4538812 10,16.7453465 C10.6108892,16.4538812 11.7436364,15.8708911 12.8508892,15.1105149 C13.7672926,14.4768515 14.492767,13.8431881 15.0018182,13.2222178 C15.549071,12.550495 15.8291108,11.9168317 15.8291108,11.3465149 L15.8291108,11.3465149 L15.8291108,5.04794059 L10,3.21029703 Z M9.919,6.2 C11.7312982,6.2 12.838,7.43773684 12.838,9.60605263 C12.838,10.3885965 12.6776491,10.9705789 12.312807,11.5805614 L12.312807,11.5805614 L13.0060526,12.2764211 C13.1029649,12.3988947 13.1519649,12.5086842 13.1519649,12.6059825 C13.1274912,12.7771053 12.9040175,13.0290175 12.6850702,13.0535614 C12.5630877,13.0290175 12.4661754,12.9923509 12.393193,12.9437018 L12.393193,12.9437018 L11.736386,12.3211053 C11.2494912,12.7606491 10.6679825,12.9387719 9.919,12.9387719 C8.14515789,12.9387719 7,11.7279649 7,9.60605263 C7,7.45870175 8.08257895,6.2 9.919,6.2 Z M9.94575439,7.34 C8.82833333,7.40231579 8.16,8.18778947 8.16,9.61429825 C8.16,11.0900175 8.82833333,11.7760877 9.94575439,11.8174737 C10.4007193,11.8174737 10.5481053,11.7307895 10.8915088,11.561193 L10.8915088,11.561193 L10.4258772,11.1250526 C10.2647018,10.938386 10.266193,10.7940175 10.2647018,10.679614 C10.2851228,10.5136316 10.3135439,10.3853509 10.5247018,10.2848772 C10.6957544,10.2190877 10.9915439,10.3238246 11.0745088,10.406614 L11.0745088,10.406614 L11.4470351,10.7804912 C11.6123684,10.406614 11.7315088,10.1040702 11.7315088,9.61436842 C11.7315614,8.17192982 11.0423684,7.40231579 9.94575439,7.34 Z" id="形状结合" fill="#72747F"></path>
                    </g>
                </g>
            </g>
        </g>
    </g>
</svg>