<?xml version="1.0" encoding="UTF-8"?>
<svg width="20px" height="20px" viewBox="0 0 20 20" version="1.1" xmlns="http://www.w3.org/2000/svg" xmlns:xlink="http://www.w3.org/1999/xlink">
    <g id="页面-1" stroke="none" stroke-width="1" fill="none" fill-rule="evenodd">
        <g id="侧边导航-收起-绿" transform="translate(-16.000000, -326.000000)">
            <g id="Repeat-Group" transform="translate(0.000000, 140.000000)">
                <g id="编组-12备份" transform="translate(0.000000, 176.000000)">
                    <g id="nav_ckgl_icon_grey" transform="translate(16.000000, 10.000000)">
                        <rect id="矩形" x="0" y="0" width="20" height="20" rx="4"></rect>
                        <path d="M15.6399897,8.80526477 C15.9672688,8.80526477 16.2325809,9.07123367 16.2325809,9.39932293 L16.2325809,15.1022812 C16.2325809,16.1475265 15.3911014,17 14.3463631,17 L5.61482759,17 C4.57038554,17 3.7286097,16.1475265 3.7286097,15.1022812 L3.7286097,9.39932293 C3.7286097,9.07123367 3.99392183,8.80526477 4.32120093,8.80526477 C4.64848003,8.80526477 4.91379216,9.07123367 4.91379216,9.39932293 L4.91379216,15.1022812 C4.91379216,15.4973299 5.23082847,15.8118837 5.61482759,15.8118837 L14.3466594,15.8118837 C14.5334507,15.8109407 14.7122176,15.735649 14.8436321,15.6025722 C14.9750467,15.4694954 15.0483439,15.2895349 15.0473985,15.1022812 L15.0473985,9.39932293 C15.0473985,9.07123367 15.3127106,8.80526477 15.6399897,8.80526477 Z M8.77875,11.0339996 C8.98393835,11.0341984 9.18064006,11.115917 9.32556601,11.2611711 C9.47049196,11.4064253 9.55176537,11.6033113 9.5515112,11.8084996 L9.5515112,13.3169996 C9.5515112,13.7419996 9.208,14.0912496 8.77875,14.0912496 L7.2775,14.0912496 C7.07231168,14.0911171 6.87558367,14.0094621 6.73061085,13.8642548 C6.58563803,13.7190476 6.504301,13.5221879 6.50447679,13.3169996 L6.50447679,11.8084996 C6.505,11.3832496 6.84875,11.0339996 7.278,11.0339996 L8.77875,11.0339996 Z M12.1895,11.0339996 C12.3946883,11.0341984 12.5913901,11.115917 12.736316,11.2611711 C12.881242,11.4064253 12.9625154,11.6033113 12.9622618,11.8084996 L12.9622618,13.3169996 C12.9622618,13.7419996 12.61875,14.0912496 12.1895,14.0912496 L10.68875,14.0912496 C10.4835617,14.0911171 10.2868337,14.0094621 10.1418608,13.8642548 C9.99688803,13.7190476 9.915551,13.5221879 9.91572679,13.3169996 L9.91572679,11.8084996 C9.91572679,11.3832496 10.25925,11.0339996 10.68875,11.0339996 L12.1895,11.0339996 Z M8.5515,12.0339996 L7.505,12.0339996 L7.505,13.0914996 L8.5515,13.0914996 L8.5515,12.0339996 Z M11.96225,12.0339996 L10.91575,12.0339996 L10.91575,13.0914996 L11.96225,13.0914996 L11.96225,12.0339996 Z M8.77875,7.60524961 C8.98393835,7.60544839 9.18064006,7.68716697 9.32556601,7.83242112 C9.47049196,7.97767527 9.55176537,8.17456134 9.5515112,8.37974961 L9.5515112,9.88824961 C9.5515112,10.3132496 9.208,10.6624996 8.77875,10.6624996 L7.2775,10.6624996 C7.07231168,10.6623671 6.87558367,10.5807121 6.73061085,10.4355048 C6.58563803,10.2902976 6.504301,10.0934379 6.50447679,9.88824961 L6.50447679,8.37999961 C6.505,7.95474961 6.84875,7.60524961 7.278,7.60524961 L8.77875,7.60524961 Z M8.5515,8.60524961 L7.505,8.60524961 L7.505,9.66274961 L8.5515,9.66274961 L8.5515,8.60524961 Z M10.9881486,2.35409023 L17.7827996,7.93081117 C17.9466121,8.06526301 18.026429,8.27711092 17.9921841,8.48655382 C17.9579392,8.69599672 17.814835,8.87121526 17.6167776,8.94620631 C17.4187201,9.02119737 17.195799,8.98454296 17.0319865,8.85011616 L10.2373355,3.27339523 C10.0994375,3.15970038 9.90056783,3.15970038 9.7626699,3.27339523 L2.96801886,8.85011616 C2.71478666,9.05796071 2.34142616,9.02065857 2.13409485,8.76679951 C1.92676354,8.51294044 1.96397357,8.13865571 2.21720577,7.93081117 L9.01185681,2.35409023 C9.58644864,1.88196992 10.4135567,1.88196992 10.9881486,2.35409023 Z" id="形状结合" fill="#72747F" fill-rule="nonzero"></path>
                    </g>
                </g>
            </g>
        </g>
    </g>
</svg>