<?xml version="1.0" encoding="UTF-8"?>
<svg width="20px" height="20px" viewBox="0 0 20 20" version="1.1" xmlns="http://www.w3.org/2000/svg" xmlns:xlink="http://www.w3.org/1999/xlink">
    <g id="页面-1" stroke="none" stroke-width="1" fill="none" fill-rule="evenodd">
        <g id="侧边导航-收起-绿" transform="translate(-16.000000, -150.000000)">
            <g id="Repeat-Group" transform="translate(0.000000, 140.000000)">
                <g id="nav_xtgl_icon_grey" transform="translate(16.000000, 10.000000)">
                    <rect id="矩形" x="0" y="0" width="20" height="20" rx="4"></rect>
                    <path d="M9.90740741,11 C10.1897201,11 10.4506064,11.150544 10.5917752,11.3950268 C10.732944,11.6395096 10.732944,11.9407373 10.5917752,12.1852201 C10.4506064,12.4297029 10.1897201,12.5802901 9.90740741,12.5802469 C5.85367902,12.5802469 3.58641976,13.8025679 3.58641976,15.345679 C3.58641976,15.8734815 3.83451852,16.1041975 4.35402469,16.132642 L4.46938272,16.1358025 L9.90740741,16.1358025 C10.3266975,16.1346706 10.6738564,16.4612495 10.6983181,16.8798269 C10.7227797,17.2984044 10.4160245,17.663198 9.9994568,17.7109136 L9.90740741,17.7160494 L4.46938272,17.7160494 C3.06967902,17.7160494 2.00617283,16.8773333 2.00617283,15.345679 C2.00617283,12.6663704 5.09674074,11 9.90740741,11 Z M14.7808889,11 C14.948,11 15.0321481,11.0118519 15.1008889,11.0355556 L15.1344691,11.0481975 C15.2213523,11.0830461 15.2962751,11.1423257 15.3501728,11.2188642 L15.3695309,11.2480988 L15.3786173,11.2635062 L15.396,11.2962963 C15.4098272,11.3255309 15.4224691,11.3595062 15.4347161,11.402963 L15.4493333,11.4602469 C15.4540741,11.4811852 15.4592099,11.5037037 15.4639506,11.5285926 L15.4682963,11.5522963 C15.5132086,11.7950836 15.6527477,12.0100776 15.8562047,12.1499635 C16.0596616,12.2898495 16.310363,12.3431636 16.5531358,12.2981728 L16.6238519,12.2823704 L16.6929876,12.261037 C16.8897284,12.1919013 16.9711111,12.1828148 17.0603951,12.190321 C17.1492839,12.1982222 17.2306667,12.2274568 17.3037531,12.2784198 C17.3476049,12.3092346 17.3855309,12.3424198 17.430963,12.4024691 L17.462963,12.4471111 C17.4740247,12.4629136 17.4858765,12.4810864 17.4981235,12.5008395 L17.5376296,12.5660247 L17.6699753,12.792 L17.7075062,12.8579753 C17.7691358,12.9701729 17.7920494,13.0365432 17.802321,13.1001482 L17.8062716,13.1349136 C17.8162428,13.233205 17.7951004,13.3321462 17.7458272,13.4177778 L17.7272593,13.4485926 C17.693679,13.5007408 17.6431111,13.5552593 17.5467161,13.6382222 L17.5159012,13.6639013 C17.3173185,13.8296139 17.1992364,14.0724567 17.1915327,14.3309841 C17.183829,14.5895116 17.2872418,14.8389545 17.4756049,15.0161975 L17.5162963,15.0517531 C17.6328395,15.1493333 17.6901235,15.2101729 17.7272593,15.2674568 L17.7458272,15.2982716 C17.7951004,15.3839032 17.8162428,15.4828444 17.8062716,15.5811358 L17.802321,15.6159013 C17.7928395,15.6739753 17.7734815,15.7336296 17.7233086,15.8284445 L17.6897284,15.889679 C17.6832198,15.9011792 17.6766353,15.9126362 17.6699753,15.9240494 L17.5376296,16.1500247 L17.4981235,16.2152099 C17.4858766,16.234963 17.4744198,16.2527408 17.462963,16.2689383 L17.431358,16.3135803 C17.396105,16.3618146 17.3529642,16.4037534 17.3037531,16.4376296 C17.2306667,16.4889877 17.149679,16.5182222 17.06,16.5257284 C16.977037,16.5328395 16.9003951,16.5257284 16.7309136,16.4680494 L16.6787654,16.4498765 C16.4491484,16.3690045 16.1968072,16.3826782 15.9772734,16.4878884 C15.7577397,16.5930987 15.5890034,16.7812239 15.5081975,17.0108642 L15.4872593,17.0792099 L15.4714568,17.1487408 C15.4649201,17.184596 15.4575436,17.220293 15.4493333,17.2558025 L15.4347161,17.3130864 C15.4224691,17.3565432 15.4098272,17.3905185 15.396,17.4197531 L15.3786173,17.4525432 L15.3695309,17.4679506 L15.3497778,17.4971852 C15.2984198,17.5694815 15.2320494,17.624 15.1506667,17.6607408 L15.1344691,17.6678519 L15.1008889,17.6804938 C15.0436049,17.7002469 14.9756543,17.7120988 14.8575309,17.7148642 L14.7808889,17.7160494 L14.5154074,17.7160494 L14.4387654,17.7148642 C14.320642,17.7117037 14.2526914,17.7002469 14.1954074,17.6804938 L14.1618272,17.6678519 C14.074944,17.6330033 14.0000212,17.5737237 13.9461235,17.4971852 L13.9267654,17.4679506 C13.9236434,17.4628704 13.9206141,17.4577337 13.917679,17.4525432 L13.9002963,17.4197531 C13.8843926,17.3853585 13.8714407,17.3496745 13.8615802,17.3130864 L13.846963,17.2558025 L13.8323457,17.1874568 L13.8323457,17.1874568 L13.828,17.1637531 C13.7831791,16.9208931 13.6436782,16.7058016 13.4402107,16.5658343 C13.2367431,16.425867 12.9859907,16.3724995 12.7431605,16.4174815 L12.6728395,16.433284 L12.6033086,16.4550124 C12.4065679,16.5241482 12.3251852,16.5332346 12.2359012,16.5257284 C12.1483634,16.518652 12.0643251,16.4882291 11.9925432,16.4376296 C11.9434732,16.4037186 11.9004679,16.3617818 11.8653333,16.3135803 L11.8333333,16.2689383 C11.8212666,16.251258 11.8095443,16.2333452 11.7981728,16.2152099 L11.7586667,16.1500247 L11.626321,15.9240494 L11.5887901,15.8580741 C11.5271605,15.7458765 11.5042469,15.6795062 11.4939753,15.6159013 L11.4900247,15.5811358 C11.4800535,15.4828444 11.5011959,15.3839032 11.5504691,15.2982716 L11.569037,15.2674568 C11.6026173,15.2153087 11.6531852,15.1607901 11.7495802,15.0778272 L11.7803951,15.0521482 C11.9789778,14.8864355 12.0970599,14.6435927 12.1047636,14.3850653 C12.1124673,14.1265378 12.0090545,13.8770949 11.8206914,13.6998519 L11.78,13.6642963 C11.6634568,13.5667161 11.6061728,13.5058765 11.569037,13.4485926 L11.5504691,13.4177778 C11.5011959,13.3321462 11.4800535,13.233205 11.4900247,13.1349136 L11.4939753,13.1001482 C11.5034568,13.0420741 11.5228148,12.9824198 11.5729876,12.887605 L11.6065679,12.8263704 L11.626321,12.792 L11.7586667,12.5660247 L11.7981728,12.5008395 C11.8104197,12.4810864 11.8218765,12.4633086 11.8333333,12.4471111 L11.8649383,12.4024691 C11.9107654,12.3424198 11.9486914,12.3092346 11.9925432,12.2784198 C12.0656296,12.2270618 12.1466173,12.1978272 12.2362963,12.190321 C12.3192593,12.1832099 12.3959012,12.190321 12.5653827,12.248 L12.6175309,12.2661728 C12.8471479,12.3470449 13.0994891,12.3333712 13.3190228,12.228161 C13.5385566,12.1229507 13.7072929,11.9348255 13.7880988,11.7051852 L13.809037,11.6368395 L13.8248395,11.5673087 C13.8323457,11.5266173 13.8394568,11.4914568 13.846963,11.4602469 L13.8615802,11.402963 C13.8738271,11.3595062 13.8864691,11.3255309 13.9002963,11.2962963 L13.917679,11.2635062 L13.9267654,11.2480988 L13.9465185,11.2188642 C13.9978765,11.1465679 14.0642469,11.0920494 14.1456296,11.0553087 L14.1618272,11.0481975 L14.1954074,11.0355556 C14.2526914,11.0158025 14.320642,11.0039506 14.4387654,11.0011852 L14.5154074,11 L14.7808889,11 Z M14.6481481,12.9440988 C13.8544691,12.9440988 13.2113086,13.5773827 13.2113086,14.3584198 C13.2113086,15.1390618 13.8544691,15.7719506 14.6481481,15.7719506 C15.4418272,15.7719506 16.0849876,15.1390617 16.0849876,14.3580247 C16.0849876,13.5773827 15.4418271,12.9440988 14.6481481,12.9440988 Z M10,2 C12.2090909,2 14,3.79090909 14,6 C14,8.20909091 12.2090909,10 10,10 C7.79090909,10 6,8.20909089 6,6 C6,3.79090911 7.79090909,2 10,2 Z M10,3.45454545 C8.59418427,3.45454545 7.45454546,4.59418427 7.45454546,5.99999999 C7.45454546,7.40581572 8.59418427,8.54545454 10,8.54545454 C11.4058157,8.54545454 12.5454545,7.40581572 12.5454545,5.99999999 C12.5454545,4.59418427 11.4058157,3.45454545 10,3.45454545 Z" id="形状结合" fill="#72747F" fill-rule="nonzero"></path>
                </g>
            </g>
        </g>
    </g>
</svg>