<?xml version="1.0" encoding="UTF-8"?>
<svg width="20px" height="20px" viewBox="0 0 20 20" version="1.1" xmlns="http://www.w3.org/2000/svg" xmlns:xlink="http://www.w3.org/1999/xlink">
    <g id="页面-1" stroke="none" stroke-width="1" fill="none" fill-rule="evenodd">
        <g id="侧边导航-收起-绿" transform="translate(-16.000000, -370.000000)">
            <g id="Repeat-Group" transform="translate(0.000000, 140.000000)">
                <g id="编组-12备份" transform="translate(0.000000, 220.000000)">
                    <g id="nav_gzgl_icon_grey" transform="translate(16.000000, 10.000000)">
                        <rect id="矩形" x="0" y="0" width="20" height="20" rx="4"></rect>
                        <path d="M12.9984375,3 C13.7984375,3 14.5421875,3.234375 15.1671875,3.6390625 L15.1671875,3.6390625 L14.2453125,4.5609375 C13.915625,4.890625 13.915625,5.4234375 14.2453125,5.753125 C14.409375,5.9171875 14.625,6 14.840625,6 C15.05625,6 15.271875,5.9171875 15.4359375,5.753125 L15.4359375,5.753125 L16.3578125,4.83125 C16.7625,5.45625 16.996875,6.2 16.996875,7 C16.996875,8.95 15.6015625,10.5734375 13.7546875,10.9265625 L13.7546875,10.9265625 L16.4140625,13.5859375 C17.1953125,14.3671875 17.1953125,15.6328125 16.415625,16.4140625 C16.025,16.8046875 15.5140625,17 15.0015625,17 C14.4890625,17 13.978125,16.8046875 13.5875,16.4140625 L13.5875,16.4140625 L10.353125,13.1796875 L7.2671875,16.265625 C6.7796875,16.7546875 6.1390625,16.9984375 5.5,16.9984375 C4.8609375,16.9984375 4.2203125,16.753125 3.7328125,16.265625 C2.75625,15.290625 2.75625,13.7078125 3.7328125,12.73125 L3.7328125,12.73125 L7.8796875,8.584375 L6.2796875,6.984375 C6.075,7.0828125 5.8546875,7.13125 5.6328125,7.13125 C5.2484375,7.13125 4.8640625,6.984375 4.571875,6.6921875 L4.571875,6.6921875 L3.140625,5.2609375 C2.9546875,5.075 2.9546875,4.775 3.140625,4.5890625 L3.140625,4.5890625 L4.5890625,3.140625 C4.68125,3.0484375 4.803125,3.0015625 4.925,3.0015625 C5.046875,3.0015625 5.16875,3.0484375 5.2609375,3.140625 L5.2609375,3.140625 L6.6921875,4.571875 C7.153125,5.0328125 7.25,5.7203125 6.984375,6.278125 L6.984375,6.278125 L8.5828125,7.8796875 L9.021875,7.440625 C9.00625,7.2953125 8.9984375,7.1484375 8.9984375,7 C8.9984375,4.790625 10.7890625,3 12.9984375,3 Z M12.4734375,11.059375 L11.059375,12.4734375 L14.29375,15.7078125 C14.48125,15.8953125 14.7328125,16 15,16 C15.2671875,16 15.51875,15.896875 15.7078125,15.7078125 C16.096875,15.3171875 16.096875,14.6828125 15.7078125,14.29375 L15.7078125,14.29375 L12.4734375,11.059375 Z M12.9984375,4 C12.196875,4 11.44375,4.3125 10.875,4.8796875 C10.309375,5.4453125 9.996875,6.1984375 9.996875,7 C9.996875,7.109375 10.003125,7.2203125 10.015625,7.33125 L10.015625,7.33125 L10.0671875,7.8078125 L9.728125,8.146875 L4.4375,13.4375 C3.853125,14.021875 3.853125,14.9734375 4.4375,15.5578125 C4.721875,15.840625 5.0984375,15.996875 5.4984375,15.996875 C5.9,15.996875 6.2765625,15.840625 6.559375,15.5578125 L6.559375,15.5578125 L11.8515625,10.265625 L12.190625,9.9265625 L12.6671875,9.978125 C12.778125,9.990625 12.8890625,9.996875 12.9984375,9.996875 C13.7984375,9.996875 14.5515625,9.6859375 15.11875,9.11875 C15.684375,8.553125 15.996875,7.8 15.996875,6.9984375 C15.996875,6.8671875 15.9890625,6.7375 15.971875,6.609375 C15.65,6.8625 15.25625,6.9984375 14.840625,6.9984375 C14.3484375,6.9984375 13.8859375,6.8078125 13.5375,6.459375 C13.190625,6.1109375 12.9984375,5.6484375 12.9984375,5.15625 C12.9984375,4.7421875 13.1359375,4.346875 13.3875,4.025 C13.259375,4.0078125 13.1296875,4 12.9984375,4 Z M5.5,14 C5.77614237,14 6,14.2238576 6,14.5 C6,14.7761424 5.77614237,15 5.5,15 C5.22385763,15 5,14.7761424 5,14.5 C5,14.2238576 5.22385763,14 5.5,14 Z M4.9234375,4.2171875 L4.2171875,4.9234375 L5.278125,5.984375 C5.4046875,6.1125 5.5546875,6.13125 5.63125,6.13125 C5.7078125,6.13125 5.85625,6.1125 5.984375,5.984375 C6.1796875,5.7890625 6.1796875,5.471875 5.984375,5.278125 L5.984375,5.278125 L4.9234375,4.2171875 Z" id="形状结合" fill="#72747F" fill-rule="nonzero"></path>
                    </g>
                </g>
            </g>
        </g>
    </g>
</svg>