<?xml version="1.0" encoding="UTF-8"?>
<svg width="20px" height="20px" viewBox="0 0 20 20" version="1.1" xmlns="http://www.w3.org/2000/svg" xmlns:xlink="http://www.w3.org/1999/xlink">
    <g id="页面-1" stroke="none" stroke-width="1" fill="none" fill-rule="evenodd">
        <g id="侧边导航-收起-绿" transform="translate(-16.000000, -546.000000)">
            <g id="Repeat-Group" transform="translate(0.000000, 140.000000)">
                <g id="编组-12备份" transform="translate(0.000000, 396.000000)">
                    <g id="nav_sczx_icon_grey" transform="translate(16.000000, 10.000000)">
                        <rect id="矩形" x="0" y="0" width="20" height="20" rx="4"></rect>
                        <path d="M13.8842731,3 C14.2749999,3 14.5917466,3.31916529 14.5917466,3.71287564 L14.5908745,10.598 L14.8234441,10.5983768 C16.5769994,10.6003412 17.9980505,12.0322433 18,13.7991884 C17.9980505,15.5661335 16.5769994,16.9980356 14.8234441,17 L4.27034797,17 C3.87962116,17 3.5628745,16.6808347 3.5628745,16.2871244 C3.5628745,15.893414 3.87962116,15.5742487 4.27034797,15.5742487 L14.8234441,15.5742487 C15.7958691,15.5730703 16.5838836,14.7790386 16.5850531,13.7991884 C16.5838836,12.8193382 15.7958691,12.0253065 14.8234441,12.0241281 L4.27034797,12.0241281 C3.87966346,12.0240678 3.5628745,11.7049202 3.5628745,11.3112525 C3.5628745,10.9175847 3.87966346,10.5983768 4.27034797,10.5983768 L4.6928745,10.598 L4.69357848,3.71287564 C4.69357848,3.31916529 5.01032514,3 5.40105195,3 L13.8842731,3 Z M5.65963349,12.8888463 C6.15859161,12.8888463 6.5630771,13.2964203 6.5630771,13.7991884 C6.5630771,14.1244223 6.39088173,14.4249509 6.1113553,14.5875679 C5.83182888,14.7501848 5.48743811,14.7501848 5.20791169,14.5875679 C4.92838526,14.4249509 4.75618989,14.1244223 4.75618989,13.7991884 C4.75618989,13.2964203 5.16067538,12.8888463 5.65963349,12.8888463 Z M9.82945309,12.8884898 C10.3286066,12.8884898 10.7332504,13.2962234 10.7332504,13.7991884 C10.732543,14.3019565 10.3280575,14.7095306 9.82909935,14.7095306 C9.33014122,14.7095306 8.92565574,14.3019565 8.92565574,13.7991884 C8.92565574,13.2962234 9.33029959,12.8884898 9.82945309,12.8884898 Z M13.8842731,12.8884898 C14.3834266,12.8884898 14.7880705,13.2962235 14.7880705,13.7991884 C14.7880705,14.3021534 14.3834266,14.709887 13.8842731,14.709887 C13.3851196,14.709887 12.9804758,14.3021534 12.9804758,13.7991884 C12.9804758,13.2962235 13.3851196,12.8884898 13.8842731,12.8884898 Z M13.1775071,4.42575127 L6.10852541,4.42575127 L6.10852541,10.5983768 L13.1775071,10.5983768 L13.1775071,4.42575127 Z M10.560159,6.01201878 C10.9508435,6.01207905 11.2675242,6.33122669 11.2675242,6.72489441 C11.2675242,7.11856213 10.9508435,7.43770977 10.560159,7.43777004 L8.80719293,7.43777004 C8.41650842,7.43770977 8.09982777,7.11856213 8.09982777,6.72489441 C8.09982777,6.33122669 8.41650842,6.01207905 8.80719293,6.01201878 L10.560159,6.01201878 Z" id="形状结合" fill="#72747F" fill-rule="nonzero"></path>
                    </g>
                </g>
            </g>
        </g>
    </g>
</svg>