<?xml version="1.0" encoding="UTF-8"?>
<svg width="20px" height="20px" viewBox="0 0 20 20" version="1.1" xmlns="http://www.w3.org/2000/svg" xmlns:xlink="http://www.w3.org/1999/xlink">
    <g id="页面-1" stroke="none" stroke-width="1" fill="none" fill-rule="evenodd">
        <g id="侧边导航-收起-绿" transform="translate(-16.000000, -458.000000)">
            <g id="Repeat-Group" transform="translate(0.000000, 140.000000)">
                <g id="编组-12备份" transform="translate(0.000000, 308.000000)">
                    <g id="nav_sbgl_icon_grey" transform="translate(16.000000, 10.000000)">
                        <rect id="矩形" x="0" y="0" width="20" height="20" rx="4"></rect>
                        <path d="M12.0727011,2.17970911 C12.2812597,2.26592995 12.4723748,2.3803474 12.6423695,2.51746773 L16.2214995,2.51817176 C16.3196037,2.51817176 16.413473,2.53590511 16.4982518,2.56773002 C16.5394157,2.57938812 16.5796397,2.59645567 16.6178555,2.61851957 C16.6941997,2.66259694 16.7572827,2.72358475 16.8034791,2.79520344 C16.8588019,2.874978 16.8905774,2.96627062 16.8905774,3.06361573 L16.8903666,3.07569515 C16.8905069,3.08074857 16.8905774,3.08581323 16.8905774,3.09088792 L16.8901465,4.69578933 L17.2542067,4.6963112 C17.4492,4.6961863 17.6294282,4.80016408 17.7269248,4.96903329 L18.6359981,6.52900303 C18.7334323,6.69776398 18.7334323,6.90568604 18.6359981,7.07444699 L17.7269248,8.63441671 C17.5763046,8.89549171 17.2425598,8.98503302 16.9814848,8.83441283 C16.7204098,8.68379264 16.6308684,8.35004775 16.7814886,8.08897275 L17.5251106,6.801725 L16.9396674,5.78719924 L15.7578721,5.78719924 L15.172429,6.801725 L15.9160509,8.08897275 C16.0134851,8.25785866 16.0134184,8.46589619 15.915876,8.63471962 C15.8183336,8.80354305 15.6381345,8.90753292 15.4431579,8.9074416 C15.2481813,8.90737912 15.0680489,8.80330262 14.9706147,8.63441671 L14.0615414,7.07444699 C14.0169562,6.99062708 13.9950215,6.89662126 13.9979063,6.801725 C13.9977999,6.70601136 14.0228817,6.61195484 14.0706322,6.52900303 L14.9797054,4.96903329 C15.0772021,4.80016408 15.2574302,4.6961863 15.4524235,4.6963112 L15.7991465,4.69578933 L15.7991465,3.60878933 L13.3929402,3.60903529 C13.4659783,3.83490834 13.5049793,4.07424501 13.5051979,4.31995498 C13.506935,4.93376146 13.2634487,5.52284132 12.8288381,5.95628687 L9.66514654,9.12378933 L12.0415806,13.2506908 L12.1161465,13.3897893 L12.5561161,13.3906862 C14.5831096,13.3936421 16.2319663,15.0088637 16.289064,17.0227307 C16.2901202,17.0357049 16.2905891,17.0487958 16.2905891,17.0619962 L16.2902412,17.0788847 C16.2904504,17.0942878 16.2905666,17.1097134 16.2905891,17.125161 L16.2851465,17.1247893 L16.2834501,17.1504701 C16.241178,17.4096353 16.0162615,17.6074402 15.7451451,17.6074402 L2.1635905,17.6074402 C1.88391619,17.6074402 1.65340438,17.3969505 1.62183269,17.1257488 L1.61814654,17.125161 L1.61835847,17.0773499 C1.6182175,17.0722492 1.61814654,17.067131 1.61814654,17.0619962 L1.62014654,17.0317893 L1.62361667,16.9266123 C1.72967513,14.9542569 3.36352043,13.3887431 5.36171025,13.3906862 L5.71614654,13.3897893 L4.75015391,11.7185095 C4.05685776,11.1792685 3.61083513,10.3371042 3.61083513,9.39076567 C3.61083513,8.08426239 4.46096425,6.97631741 5.63822792,6.5899253 L9.54708357,2.6836231 C10.2096259,2.02043459 11.2063805,1.82156099 12.0727011,2.17970911 Z M6.34614654,14.4807893 L5.36171025,14.481576 C4.65930856,14.480128 3.98512668,14.7578925 3.48760085,15.2537133 C3.13663681,15.6034746 2.89387859,16.0415147 2.78097238,16.5158023 L15.1284698,16.5162533 C14.8523509,15.3506902 13.8057265,14.4832913 12.5561161,14.481576 L6.35914654,14.4807893 L6.34987289,14.4870304 L6.34614654,14.4807893 Z M6.55805067,12.3379812 C6.49342131,12.3379812 6.42927784,12.3359009 6.36568355,12.3318036 L6.97614654,13.3897893 L10.8711465,13.3897893 L9.2499167,10.5911022 C8.7900087,11.6200717 7.75784298,12.3372417 6.55805067,12.3379812 Z M6.55805067,7.5362562 C5.80707086,7.5362562 5.13007171,7.98873324 4.84285432,8.68261857 C4.55563693,9.3765039 4.71478997,10.175086 5.246073,10.7058486 C5.77735603,11.2366113 6.57609366,11.3949817 7.26969721,11.1070845 C7.96330076,10.8191873 8.41511382,10.1417451 8.41437918,9.39076567 C8.41237467,8.36666977 7.58214803,7.53725629 6.55805067,7.5362562 Z M6.29999999,8.88038476 C6.48564064,8.77320508 6.71435936,8.77320508 6.90000001,8.88038476 C7.08564066,8.98756444 7.2,9.18564067 7.2,9.40000003 C7.2,9.61435939 7.08564066,9.81243561 6.90000001,9.91961529 C6.71435936,10.026795 6.48564064,10.026795 6.29999999,9.91961529 C6.11435934,9.81243561 6,9.61435939 6,9.40000003 C6,9.18564067 6.11435934,8.98756444 6.29999999,8.88038476 Z M10.3179777,3.45451722 L7.24695021,6.52450049 C8.09629875,6.72789585 8.80272004,7.29901606 9.18850249,8.06014953 L12.0561258,5.18721088 C12.4897858,4.70034892 12.4678145,3.95958003 12.0060615,3.49927608 C11.5443086,3.03897212 10.8034743,3.0193292 10.3179777,3.45451722 Z" id="形状结合" fill="#72747F" fill-rule="nonzero"></path>
                    </g>
                </g>
            </g>
        </g>
    </g>
</svg>