<?xml version="1.0" encoding="UTF-8"?>
<svg width="13px" height="14px" viewBox="0 0 13 14" version="1.1" xmlns="http://www.w3.org/2000/svg" xmlns:xlink="http://www.w3.org/1999/xlink">
    <title>title_icon</title>
    <defs>
        <linearGradient x1="61.0198118%" y1="16.7256282%" x2="50%" y2="100%" id="linearGradient-1">
            <stop stop-color="#A9B2C5" stop-opacity="0.351480551" offset="0%"></stop>
            <stop stop-color="#757D8D" stop-opacity="0.8" offset="100%"></stop>
        </linearGradient>
    </defs>
    <g id="MOM" stroke="none" stroke-width="1" fill="none" fill-rule="evenodd">
        <g id="我的流程" transform="translate(-20.000000, -71.000000)">
            <g id="title_icon" transform="translate(20.000000, 71.000000)">
                <path d="M2.15384615,2.86949951e-14 L10.7692308,2.86949951e-14 C11.9587672,2.86949951e-14 12.9230769,0.96430977 12.9230769,2.15384615 L12.9230769,12.772067 C12.9230769,13.3668352 12.440922,13.8489901 11.8461538,13.8489901 C11.5935336,13.8489901 11.3489532,13.7601823 11.1551862,13.5980979 L6.4859322,9.69230769 L1.76481862,13.6117722 C1.30720044,13.9916864 0.628246296,13.9286949 0.24833208,13.4710767 C0.0878460263,13.2777664 0,13.0344274 0,12.7831812 L0,2.15384615 C0,0.96430977 0.96430977,2.86949951e-14 2.15384615,2.86949951e-14 Z" id="矩形" fill="#C3CBDA"></path>
                <path d="M2.15384615,2.19994962e-14 L10.7692308,2.19994962e-14 C11.9587672,2.19994962e-14 12.9230769,0.96430977 12.9230769,2.15384615 L12.9230769,12.772067 C12.9230769,13.3668352 12.440922,13.8489901 11.8461538,13.8489901 C11.5935336,13.8489901 11.3489532,13.7601823 11.1551862,13.5980979 L6.4859322,9.69230769 L0,4.29937663 L0,2.15384615 C0,0.96430977 0.96430977,2.19994962e-14 2.15384615,2.19994962e-14 Z" id="矩形备份-24" fill="url(#linearGradient-1)"></path>
            </g>
        </g>
    </g>
</svg>